HIERARCHY
ROOT Hips
{
 OFFSET 0.000000 0.000000 0.000000
 CHANNELS 6 Xposition Yposition Zposition Yrotation Xrotation Zrotation
 JOINT Chest
 {
  OFFSET 0.000000 9.585900 0.002600
  CHANNELS 3 Yrotation Xrotation Zrotation
  JOINT Chest2
  {
   OFFSET 0.000000 9.601200 -0.005300
   CHANNELS 3 Yrotation Xrotation Zrotation
   JOINT Chest3
   {
    OFFSET 0.000000 9.561800 0.000000
    CHANNELS 3 Yrotation Xrotation Zrotation
    JOINT Chest4
    {
     OFFSET 0.000000 9.552100 0.000000
     CHANNELS 3 Yrotation Xrotation Zrotation
     JOINT Neck
     {
      OFFSET 0.000000 14.453000 0.000000
      CHANNELS 3 Yrotation Xrotation Zrotation
      JOINT Head
      {
       OFFSET 0.000000 8.936500 -0.011300
       CHANNELS 3 Yrotation Xrotation Zrotation
       End Site
       {
        OFFSET 0.000000 17.073600 -0.006000
       }
      }
     }
     JOINT RightCollar
     {
      OFFSET -2.921100 9.558500 0.000000
      CHANNELS 3 Yrotation Xrotation Zrotation
      JOINT RightShoulder
      {
       OFFSET -13.519700 0.000000 0.000000
       CHANNELS 3 Yrotation Xrotation Zrotation
       JOINT RightElbow
       {
        OFFSET 0.000000 -29.696600 0.000000
        CHANNELS 3 Yrotation Xrotation Zrotation
        JOINT RightWrist
        {
         OFFSET 0.000000 -24.004700 0.000000
         CHANNELS 3 Yrotation Xrotation Zrotation
         End Site
         {
          OFFSET 0.000000 -17.728500 0.000000
         }
        }
       }
      }
     }
     JOINT LeftCollar
     {
      OFFSET 2.921100 9.558500 0.000000
      CHANNELS 3 Yrotation Xrotation Zrotation
      JOINT LeftShoulder
      {
       OFFSET 13.519700 0.000000 0.000000
       CHANNELS 3 Yrotation Xrotation Zrotation
       JOINT LeftElbow
       {
        OFFSET 0.000000 -29.696600 0.000000
        CHANNELS 3 Yrotation Xrotation Zrotation
        JOINT LeftWrist
        {
         OFFSET 0.000000 -24.004700 0.000000
         CHANNELS 3 Yrotation Xrotation Zrotation
         End Site
         {
          OFFSET 0.000000 -17.728500 0.000000
         }
        }
       }
      }
     }
    }
   }
  }
 }
 JOINT RightHip
 {
  OFFSET -7.771700 -0.012900 -0.001300
  CHANNELS 3 Yrotation Xrotation Zrotation
  JOINT RightKnee
  {
   OFFSET 0.000000 -40.869800 0.001200
   CHANNELS 3 Yrotation Xrotation Zrotation
   JOINT RightAnkle
   {
    OFFSET 0.000000 -39.717900 0.002100
    CHANNELS 3 Yrotation Xrotation Zrotation
    JOINT RightToe
    {
     OFFSET 0.000000 -4.965400 11.033500
     CHANNELS 3 Yrotation Xrotation Zrotation
     End Site
     {
      OFFSET 0.000000 -1.423100 5.872300
     }
    }
   }
  }
 }
 JOINT LeftHip
 {
  OFFSET 7.771700 -0.012900 -0.001300
  CHANNELS 3 Yrotation Xrotation Zrotation
  JOINT LeftKnee
  {
   OFFSET 0.000000 -40.869800 0.001200
   CHANNELS 3 Yrotation Xrotation Zrotation
   JOINT LeftAnkle
   {
    OFFSET 0.000000 -39.717900 0.002100
    CHANNELS 3 Yrotation Xrotation Zrotation
    JOINT LeftToe
    {
     OFFSET 0.000000 -4.965400 11.033500
     CHANNELS 3 Yrotation Xrotation Zrotation
     End Site
     {
      OFFSET 0.000000 -1.423100 5.872300
     }
    }
   }
  }
 }
}
MOTION
Frames: 5
Frame Time: 0.008333
-24.620839 60.701081 31.364360 162.658904 -35.351583 1.409879 2.084331 21.894277 1.995392 0.220501 3.022677 0.328198 0.378461 4.894607 0.471921 1.700507 18.546647 2.020695 -0.585969 12.866587 6.532085 -2.167415 -12.071346 7.222707 4.880241 4.284940 -4.980586 7.259528 -9.153925 -14.692601 -70.669841 -58.086534 102.527580 -4.738309 -0.853007 -19.067108 -10.047773 3.272473 -3.827473 14.117503 -7.512290 3.701274 58.208472 -65.618482 -85.038234 -3.469172 3.954178 7.939797 2.601958 -34.328974 0.497356 -19.643796 65.527226 -19.079692 0.631069 0.450566 1.754734 -0.004933 -0.321571 -0.014467 7.425549 -33.182123 2.454156 30.900200 64.638997 30.204822 -20.580514 -7.673726 0.686805 0.175771 0.273726 -0.102552
-24.610901 60.698458 31.361158 162.629665 -35.328024 1.410127 2.099336 21.890224 2.091398 0.228162 3.008690 0.266494 0.378449 4.894477 0.475640 1.714268 18.547282 2.078458 -0.607419 12.830815 6.637711 -2.217832 -12.105343 7.350368 4.928392 4.216732 -4.955736 7.583438 -9.101000 -14.876623 -70.238118 -58.171703 102.462787 -4.663135 -0.767632 -19.037335 -10.077633 3.244499 -3.836130 14.070324 -7.534527 3.711305 58.199675 -65.769131 -85.055415 -3.512152 3.973412 7.846795 2.596051 -34.358675 0.511295 -19.615991 65.542901 -19.049313 0.649256 0.445928 1.759994 -0.023073 -0.325252 -0.030648 7.441900 -33.206828 2.476169 30.949449 64.641341 30.244944 -20.519845 -7.684353 0.713501 0.224611 0.292866 -0.079938
-24.599856 60.697082 31.357199 162.584404 -35.317267 1.417492 2.142762 21.885292 2.144431 0.225698 3.007387 0.256259 0.378390 4.894416 0.479252 1.730538 18.547714 2.135244 -0.623518 12.794632 6.740732 -2.261900 -12.139999 7.473855 4.976213 4.150656 -4.931086 7.906283 -9.042520 -15.046376 -69.785337 -58.256262 102.375388 -4.576636 -0.675768 -18.986443 -10.107725 3.221035 -3.877640 14.015011 -7.573922 3.753174 58.207365 -65.919571 -85.078691 -3.557933 3.988272 7.754493 2.598743 -34.375194 0.531352 -19.590496 65.557969 -19.024873 0.673495 0.441043 1.760916 -0.046655 -0.329263 -0.040834 7.478235 -33.217862 2.506390 31.022187 64.644701 30.309958 -20.471871 -7.707248 0.723689 0.316474 0.313292 -0.035243
-24.590315 60.696084 31.353015 162.569345 -35.310914 1.419395 2.158012 21.880683 2.163090 0.226677 3.019786 0.342749 0.376787 4.892020 0.479208 1.713418 18.542270 2.115724 -0.632973 12.759300 6.841536 -2.298211 -12.173911 7.593293 5.025633 4.087585 -4.907844 8.230564 -8.981997 -15.202919 -69.299850 -58.329442 102.257417 -4.482103 -0.578054 -18.907859 -10.136597 3.196451 -3.918199 13.960649 -7.615266 3.794758 58.232951 -66.072440 -85.113129 -3.602733 4.001532 7.667213 2.582035 -34.387174 0.532331 -19.564086 65.581900 -18.971209 0.656422 0.427907 1.711731 -0.025092 -0.333535 -0.025391 7.496068 -33.223230 2.516931 31.054926 64.644779 30.345588 -20.446119 -7.719793 0.740349 0.307948 0.329354 -0.013066
-24.584171 60.693801 31.350548 162.553493 -35.290571 1.440896 2.164679 21.870182 2.191858 0.223771 3.015063 0.334870 0.377891 4.894609 0.511403 1.709025 18.538079 2.126748 -0.636334 12.726064 6.938913 -2.326960 -12.205775 7.707459 5.077614 4.030741 -4.886562 8.558165 -8.924091 -15.348522 -68.762853 -58.378495 102.093087 -4.379742 -0.476673 -18.796521 -10.155157 3.165227 -3.930818 13.905278 -7.643075 3.809218 58.276040 -66.231956 -85.157306 -3.644067 4.014924 7.581112 2.591604 -34.410008 0.516877 -19.550271 65.591109 -18.958658 0.664031 0.418833 1.709449 -0.032169 -0.330662 -0.027310 7.524648 -33.239769 2.500601 31.055233 64.645229 30.349189 -20.419272 -7.720110 0.780529 0.267267 0.338188 -0.020333
